# xmcd CD database file
#
# Track frame offsets:
#	150
#	34244
#	73541
#	104061
#	131201
#	172011
#	210406
#	243870
#
# Disc length: 3634 seconds
#
# Revision: 2
# Processed by: cddbd v1.5.1PL2 Copyright (c) Steve Scherf et al.
# Submitted via: CDex 1.51
#
DISCID=740e3008
DTITLE=Grant Stewart - Grant Stewart +4
DYEAR=2005
DGENRE=Jazz
TTITLE0=You 'n' Me
TTITLE1=Yesterdays
TTITLE2=Cohn On The Cob
TTITLE3=Limehouse Blues
TTITLE4=The Folks Who Live On The Hill
TTITLE5=Sabia
TTITLE6=Lonely Town
TTITLE7=You Leave Me Breathless
EXTD=YEAR: 2005
EXTT0=
EXTT1=
EXTT2=
EXTT3=
EXTT4=
EXTT5=
EXTT6=
EXTT7=
PLAYORDER=
